# xmcd
#
# Track frame offsets: 
#        150
#        15050
#        33027
#        49857
#        68750
#        82072
#        97240
#        100500
#        119330
#        135560
#        156645
#        160160
#        178862
#        194215
#        199990
#
# Disc length: 2982 seconds
#
# Revision: 0
# Processed by: cddbd v1.5.2PL0 Copyright (c) Steve Scherf et al.
# Submitted via: ExactAudioCopy v0.95a5
#
DISCID=ce0ba40f
DTITLE=Consequence - Don't Quit Your Day Job
DYEAR=1900
DGENRE=Hip-Hop
TTITLE0=Job Song
TTITLE1=Don't Forget Em
TTITLE2=Uptown
TTITLE3=The Good, The Bad, The Ugly (ft.Kanye West)
TTITLE4=Night Night
TTITLE5=Pretty Little Sexy Mama
TTITLE6=On Break [Skit]
TTITLE7=Feel This Way (ft.John Legend)
TTITLE8=Callin' Me
TTITLE9=Disperse (ft.Gangsta L.Crisis and Really Doe)
TTITLE10=Yo, Dex! [Skit]
TTITLE11=Uncle Rahiem
TTITLE12=Grammy Family (ft.DJ Khaled, Kaye West and John Legend)
TTITLE13=Good News, Bad News [Skit]
TTITLE14=Who Knew My Luck Would Change
EXTD=
EXTT0=
EXTT1=
EXTT2=
EXTT3=
EXTT4=
EXTT5=
EXTT6=
EXTT7=
EXTT8=
EXTT9=
EXTT10=
EXTT11=
EXTT12=
EXTT13=
EXTT14=
PLAYORDER=
